<svg width="20" height="20" viewBox="0 0 20 20" fill="none" xmlns="http://www.w3.org/2000/svg">
<path d="M10 11.667C10.2189 11.667 10.4357 11.6239 10.6379 11.5401C10.8402 11.4563 11.024 11.3336 11.1788 11.1788C11.3336 11.024 11.4563 10.8402 11.5401 10.6379C11.6239 10.4357 11.667 10.2189 11.667 10C11.667 9.78109 11.6239 9.56432 11.5401 9.36207C11.4563 9.15982 11.3336 8.97606 11.1788 8.82126C11.024 8.66647 10.8402 8.54368 10.6379 8.4599C10.4357 8.37613 10.2189 8.33301 10 8.33301C9.55789 8.33301 9.13388 8.50864 8.82126 8.82126C8.50864 9.13388 8.33301 9.55789 8.33301 10C8.33301 10.4421 8.50864 10.8661 8.82126 11.1788C9.13388 11.4914 9.55789 11.667 10 11.667Z" stroke="#1125D6" stroke-width="1.25" stroke-linecap="round" stroke-linejoin="round"/>
<path d="M17.5 10C15.926 12.492 13.098 15 10 15C6.902 15 4.074 12.492 2.5 10C4.416 7.632 6.66 5 10 5C13.34 5 15.584 7.632 17.5 10Z" stroke="#1125D6" stroke-width="1.25" stroke-linecap="round" stroke-linejoin="round"/>
</svg>
