<svg width="20" height="20" viewBox="0 0 20 20" fill="none" xmlns="http://www.w3.org/2000/svg">
<path d="M7.49999 10H12.5M9.99999 18.333C11.6481 18.333 13.2592 17.8443 14.6296 16.9286C15.9999 16.013 17.068 14.7116 17.6987 13.1889C18.3294 11.6662 18.4944 9.99075 18.1729 8.37431C17.8513 6.75786 17.0577 5.27307 15.8923 4.10768C14.7269 2.94228 13.2421 2.14864 11.6257 1.82711C10.0092 1.50558 8.33375 1.6706 6.81109 2.30131C5.28843 2.93201 3.987 4.00007 3.07136 5.37043C2.15571 6.74078 1.66699 8.35188 1.66699 10C1.66699 11.518 2.07299 12.942 2.78199 14.167L2.08299 17.917L5.83299 17.218C7.09936 17.9506 8.53697 18.3353 9.99999 18.333Z" stroke="#00BB8F" stroke-width="1.25" stroke-linecap="round" stroke-linejoin="round"/>
</svg>
